<svg fill="none" height="38" viewBox="0 0 103 38" width="103" xmlns="http://www.w3.org/2000/svg"><g fill="#000"><path d="m59.5574 10.0827 5.7407-2.14131-5.7407-2.20251v-2.99785l9.8325 3.97674v2.44723l-9.8325 3.9767z"/><path d="m5.25367 29.0489c-2.07038 0-3.7754-1.0401-3.7754-3.365v-.1223c0-2.8143 2.43575-3.7932 5.41953-3.7932h1.40055v-.5507c0-1.1624-.48714-1.8354-1.70502-1.8354-1.09608 0-1.64412.6118-1.70502 1.4684h-3.04468c.24358-2.5696 2.25307-3.7932 4.93238-3.7932 2.74022 0 4.74969 1.1624 4.74969 4.0379v7.7087h-3.10556v-1.3459c-.60893.8565-1.64413 1.5907-3.16647 1.5907zm3.04468-4.038v-1.1012h-1.27876c-1.58323 0-2.37485.4283-2.37485 1.4683v.1224c0 .7953.48715 1.346 1.58323 1.346 1.09609-.0612 2.07038-.673 2.07038-1.8355zm10.47375 4.038c-3.1665 0-5.4805-1.9578-5.4805-5.8734v-.1835c0-3.9156 2.4358-5.9957 5.4805-5.9957 2.6184 0 4.7497 1.3459 4.9932 4.3438h-3.0447c-.1826-1.1012-.7916-1.8354-1.8877-1.8354-1.3396 0-2.3139 1.1012-2.3139 3.3649v.3671c0 2.3249.8525 3.3649 2.3139 3.3649 1.0961 0 1.8877-.7953 2.0704-2.0801h2.9229c-.1827 2.6919-1.9486 4.5274-5.0541 4.5274zm11.9351 0c-3.1665 0-5.4804-1.9578-5.4804-5.8734v-.1835c0-3.9156 2.4357-5.9957 5.4804-5.9957 2.6184 0 4.7497 1.3459 4.9933 4.3438h-3.0447c-.1827-1.1012-.7916-1.8354-1.8877-1.8354-1.3397 0-2.314 1.1012-2.314 3.3649v.3671c0 2.3249.8525 3.3649 2.314 3.3649 1.0961 0 1.8877-.7953 2.0704-2.0801h2.9229c-.1827 2.6919-1.9486 4.5274-5.0542 4.5274zm11.996 0c-3.2882 0-5.5413-1.9578-5.5413-5.8122v-.2447c0-3.8544 2.3749-5.9957 5.4804-5.9957 2.862 0 5.2369 1.5907 5.2369 5.4451v1.4071h-7.4899c.1218 2.0802 1.0352 2.8755 2.3748 2.8755 1.2179 0 1.8877-.673 2.1313-1.4683h2.9838c-.3654 2.1413-2.1922 3.7932-5.176 3.7932zm-2.253-7.3417h4.2625c-.0609-1.7131-.8525-2.4472-2.1312-2.4472-.9743.0611-1.8877.6118-2.1313 2.4472zm9.3776-4.405h3.2273v1.713c.5481-1.1012 1.7051-1.9577 3.471-1.9577 2.0704 0 3.4709 1.2847 3.4709 4.0379v7.7087h-3.2273v-7.2193c0-1.3459-.5481-1.9578-1.7051-1.9578-1.096 0-2.0095.673-2.0095 2.1414v7.0357h-3.2273zm16.0759-3.4873v3.4873h2.1922v2.386h-2.1922v5.4451c0 .8565.3654 1.2848 1.157 1.2848.4871 0 .7916-.0612 1.0961-.1835v2.5084c-.3654.1223-1.0352.2447-1.8268.2447-2.4967 0-3.6537-1.1624-3.6537-3.4873v-5.8122h-1.3396v-2.386h1.3396v-2.1413zm14.2491 14.9892h-3.1665v-1.713c-.548 1.1012-1.6441 1.9578-3.3491 1.9578-2.0704 0-3.5927-1.2848-3.5927-3.9768v-7.7699h3.2273v7.3417c0 1.3459.5481 1.9577 1.6442 1.9577 1.096 0 2.0094-.7341 2.0094-2.1413v-7.1581h3.2274zm2.3749-11.5019h3.2273v2.1413c.6698-1.5295 1.7659-2.2637 3.471-2.2637v3.1814c-2.1922 0-3.471.673-3.471 2.5696v5.9345h-3.2273zm13.2139 11.7467c-3.2883 0-5.5414-1.9578-5.5414-5.8122v-.2447c0-3.8544 2.3749-5.9957 5.4805-5.9957 2.862 0 5.2373 1.5907 5.2373 5.4451v1.4071h-7.4295c.1218 2.0802 1.0352 2.8755 2.3748 2.8755 1.2179 0 1.8878-.673 2.1313-1.4683h2.9834c-.487 2.1413-2.2526 3.7932-5.2364 3.7932zm-2.314-7.3417h4.3235c-.0609-1.7131-.8525-2.4472-2.1313-2.4472-.9743.0611-1.8877.6118-2.1922 2.4472z"/></g></svg>