<svg fill="none" height="38" viewBox="0 0 138 38" width="138" xmlns="http://www.w3.org/2000/svg" xmlns:xlink="http://www.w3.org/1999/xlink"><clipPath id="a"><path d="m.34082 0h137.318v38h-137.318z"/></clipPath><clipPath id="b"><path d="m.34082 10.5h134.796v17h-134.796z"/></clipPath><mask id="c" height="17" maskUnits="userSpaceOnUse" width="136" x="0" y="10"><path d="m135.134 10.5005h-134.795621v16.4198h134.795621z" fill="#fff"/></mask><g clip-path="url(#a)"><g clip-path="url(#b)"><g fill="#000" mask="url(#c)"><path d="m20.473 23.0493c1.7937-2.4246 4.9326-6.0404 4.7981-8.4225-.1345-3.1478-3.5425-4.1687-6.9505-4.1262-2.3766.0425-4.7533.6806-6.3228 1.2336-5.5604 1.9142-8.83389 5.0195-10.71726 8.4225-2.017901 3.4031-.852005 6.636 4.21516 6.7211 3.45284-.1277 5.7398-.9359 7.9371-1.9994.1345-.0425.0448-.2126-.0897-.2126-2.0179.5104-6.77118 1.4038-8.96844.2977-.31391-.1701-.6278-.3403-.76232-.9358-.13453-1.191 1.83852-2.4672 2.95958-2.8501l-.22421-2.0843c.89685.3403 1.88337.5104 2.86988.5104 1.88341 0 3.54251-.638 4.75331-1.7015.0897.1702.1346.3828.1794.5956h.538c0-.5531-.3587-.9784-.3587-.9784-.583-.7232-1.3901-.7232-1.3901-.7232s.4036.1702.7623.5956c-2.8699 2.3821-6.4124 1.191-6.4124 1.191l1.47978-1.5313-.62778-1.1911c3.3632-1.1485 6.2331-2.0418 10.9415-2.8501l-1.1659-.8507.5381-.3403c2.9596.7657 4.9326 1.3612 5.0223 2.8075 0 .2552-.0897.5105-.1793.8508-.6726 1.5739-2.8699 4.2112-3.7668 5.3172-.5829.7232-1.1658 1.4463-1.5694 2.1269-.4037.6806-.6278 1.3187-.583 1.9567-.0448 3.5733 6.7264.5956 9.7756-1.3611.0897-.0426.0448-.2128-.0896-.1702-8.6097 2.6799-6.5919-.2978-6.5919-.2978z"/><path d="m96.5688 21.5614c0 1.5739-.8524 2.3396-2.5112 2.3396-1.076 0-1.6144-.3828-1.6144-1.106 0-.6806.5828-1.106 1.704-1.2761.4036-.0851 1.2108-.0851 2.4216-.0851zm4.7082-2.1694c0-2.7225-2.1525-3.9986-6.4122-4.0837-4.4397-.085-6.2777 1.0209-6.6813 3.318h4.5737c.2244-.7657.762-1.1485 1.838-1.1485 1.0768.0425 1.884.553 1.9285 1.9142-2.4661.0426-4.3049.1701-5.5158.4679-2.4208.553-3.5872 1.7866-3.5872 3.4881 0 1.1486.5384 1.9568 1.6144 2.5097.8072.3829 1.8388.6381 3.0941.5956 2.1076-.085 3.5872-.6381 4.5293-1.7866v1.5739h4.6185z"/><path d="m130.423 21.6465c0 1.5739-.852 2.3396-2.512 2.3396-1.076 0-1.614-.3828-1.614-1.106 0-.6806.583-1.106 1.704-1.2762.404-.085 1.211-.085 2.422-.085zm4.708-2.1269c0-2.7224-2.152-3.9986-6.412-4.0836-4.439-.0851-6.278 1.0209-6.682 3.3179h4.574c.224-.7656.763-1.1485 1.839-1.1485 1.076.0425 1.883.553 1.928 1.9142-2.467.0426-4.305.1701-5.516.4679-2.421.5531-3.587 1.7866-3.587 3.4881 0 1.1486.538 1.9568 1.614 2.5098.807.3828 1.839.6381 3.095.5956 2.107-.0851 3.587-.6381 4.528-1.7867v1.5739h4.619z"/><path d="m39.2188 20.2851 2.6007-5.53 2.4664 5.53zm0-9.1458-7.982 15.1862h5.2017l1.2556-2.7225h7.9819l1.1659 2.7225h5.7398l-7.6231-15.1862z"/><path d="m59.1276 11.1389h-5.0224v15.1861h5.0224z"/><path d="m67.3305 11.1392h-5.0224v3.0202h5.0224z"/><path d="m67.3305 15.8187h-5.0224v10.5069h5.0224z"/><path d="m79.9802 22.7097c-.942 1.1911-2.0631 1.4888-3.4532.8082-.0897-.0425-.1345-.085-.2242-.1276-.4484-.3828-.7174-.8507-.8071-1.4038-.1794-.8081-.1346-1.6164.0897-2.4246.1793-.553.4932-.9784.9416-1.2762.5382-.2977 1.1211-.4253 1.7492-.3403.8516.1277 1.4796.5956 1.838 1.3613.2244.5104.314 1.0634.314 1.6164 0 .6381-.1348 1.2336-.448 1.7866zm-9.5069 3.5732h4.8878v-1.8716-.0426c1.3005 1.5739 2.9595 2.212 4.9323 2.1694 1.1212-.0425 2.1529-.4254 3.0497-1.0209 1.2552-.9358 1.9284-2.212 2.018-3.7433.134-1.6165-.2696-3.0627-1.2108-4.3389-.942-1.106-2.1077-1.7441-3.5873-1.8717-2.018-.2552-3.767.3829-5.2019 1.8291v-6.2531h-4.9326z"/><path d="m113.743 22.7516c-.942 1.191-2.063 1.4888-3.454.8082-.089-.0425-.134-.0851-.223-.1276-.449-.3829-.718-.8507-.807-1.4038-.18-.8082-.135-1.6164.089-2.4247.179-.5529.493-.9783.941-1.2761.539-.2978 1.122-.4254 1.75-.3403.851.1276 1.479.5955 1.839 1.3612.223.5105.313 1.0635.313 1.6165 0 .6381-.134 1.2336-.448 1.7866zm-9.507 3.5732h4.888v-1.8717-.0425c1.3 1.5739 2.96 2.212 4.933 2.1694 1.121-.0425 2.152-.4254 3.049-1.0209 1.256-.9359 1.928-2.212 2.018-3.7434.134-1.6164-.269-3.0627-1.211-4.3388-.941-1.106-2.108-1.7441-3.587-1.8717-2.019-.2553-3.767.3828-5.202 1.8291v-6.2531h-4.933z"/></g></g></g></svg>