<svg height='38' viewBox="0 0 104 38" fill="none" xmlns="http://www.w3.org/2000/svg">
<g clip-path="url(#clip0_7800_4863)">
<path d="M28.735 10.0009V29.9629H25.7905C20.2917 29.9629 15.8096 25.4807 15.8096 19.9819C15.8096 14.483 20.2917 10.0009 25.7905 10.0009H28.735Z" fill="black"/>
<path d="M3.28581 10.0015C8.78461 10.0015 13.2667 14.4837 13.2667 19.9826C13.2667 25.4814 8.78461 29.9636 3.28581 29.9636H0.341309V10.0015H3.28581Z" fill="black"/>
<path d="M91.9752 16.1612L95.9174 25.0254L99.8595 16.1612H103.165C102.493 17.664 95.3352 33.6596 95.3278 33.6754C94.4472 35.6476 92.127 36.5398 90.1602 35.6624L89.1119 35.1952L89.1066 35.1931L90.3279 32.451L90.7624 32.6451C91.5734 33.0068 92.5299 32.6387 92.8927 31.8256C92.8959 31.8182 94.2648 28.7377 94.2648 28.7377L88.6689 16.1612H91.9752Z" fill="black"/>
<path d="M72.3245 10.0032H69.2988V29.9631H72.3245V10.0032Z" fill="black"/>
<path d="M81.856 16.1496C80.3859 16.1496 79.0222 16.6115 77.9012 17.3961V10.0032H74.8691V29.9631H77.9012V28.7366C79.0233 29.5212 80.3859 29.9832 81.856 29.9832C85.6706 29.9832 88.7733 26.8804 88.7733 23.0658C88.7733 19.2512 85.6706 16.1485 81.856 16.1485V16.1496ZM81.856 27.2116C80.0062 27.2116 78.4506 26.0072 77.9012 24.3546C77.763 23.9401 77.686 23.4993 77.686 23.0405C77.686 22.5818 77.7641 22.1378 77.9012 21.7243C78.4549 20.0622 80.0241 18.8705 81.856 18.8705C84.1445 18.8705 86.026 20.752 86.026 23.0405C86.026 25.3291 84.1445 27.2105 81.856 27.2105V27.2116Z" fill="black"/>
<path d="M60.4241 16.1485C56.6095 16.1485 53.5068 19.2512 53.5068 23.0658C53.5068 26.8804 56.6095 29.9831 60.4241 29.9831C64.2387 29.9831 67.3403 26.8804 67.3403 23.0658C67.3403 19.2512 64.2376 16.1485 60.4241 16.1485ZM60.4241 27.2105C58.1103 27.2105 56.2541 25.3291 56.2541 23.0405C56.2541 20.752 58.1356 18.8705 60.4241 18.8705C62.7126 18.8705 64.5941 20.752 64.5941 23.0405C64.5941 25.3291 62.7126 27.2105 60.4241 27.2105Z" fill="black"/>
<path d="M41.9897 10H34.7803V29.9631H41.9897C47.4937 29.9631 51.9706 25.4851 51.9706 19.981C51.9706 14.4769 47.4927 10 41.9897 10ZM41.9897 26.9363H37.806V13.0268H41.9897C45.8211 13.0268 48.9449 16.1506 48.9449 19.9821C48.9449 23.8136 45.8222 26.9374 41.9897 26.9374V26.9363Z" fill="black"/>
</g>
<defs>
<clipPath id="clip0_7800_4863">
<rect width="103" height="38" fill="white" transform="translate(0.345215)"/>
</clipPath>
</defs>
</svg>
