<svg fill="none" height="38" viewBox="0 0 110 38" width="110" xmlns="http://www.w3.org/2000/svg" xmlns:xlink="http://www.w3.org/1999/xlink"><clipPath id="a"><path d="m.959229 10.5h106.25v17h-106.25z"/></clipPath><g clip-path="url(#a)" fill="#000"><path d="m18.5452 27.4559 3.0268-16.9589h6.7539c1.0296 0 1.8841.1647 2.5327.5145.6589.3499 1.1119.813 1.4414 1.451.2986.6174.4633 1.3789.4633 2.2331 0 1.0187-.1442 1.9655-.4119 2.8299-.2676.8541-.6795 1.6156-1.1942 2.233-.5148.6483-1.1428 1.132-1.8532 1.4819-.7001.3498-1.5237.535-2.3989.535h-3.2637l-1.0913 5.6805zm5.611-8.9117h2.1518c.4633 0 .8648-.1646 1.1943-.4631.3294-.2984.5971-.6997.7618-1.2142.1853-.5146.2677-1.0805.2677-1.698 0-.4836-.103-.8335-.35-1.0805-.2471-.247-.628-.3807-1.1429-.3807h-2.0487zm7.7834 8.9117 3.0167-16.9589h4.0255l-2.4195 13.5732h6.2597c-.35 1.9655-2.0694 3.3959-4.0873 3.3959h-6.7951zm10.8928 0 7.6187-16.9589h5.2507l1.3899 16.9589h-4.1389l-.1441-3.0975h-4.5712l-1.2561 3.0975zm6.692-6.267h3.2226l-.103-4.3941c0-.1852 0-.4013 0-.6483 0-.2469-.0206-.4836-.0206-.7306-.0206-.247-.0206-.5145-.0206-.7512s0-.4631 0-.6689h-.1647c-.1029.2676-.2162.5866-.3501.9364-.1441.3499-.2677.6689-.4118.9982-.1442.3293-.2471.5866-.3295.8541zm8.5762 6.267 3.0269-16.9589h3.6961l2.4504 7.2446c.0617.1852.1441.4013.2162.6174.0823.2469.1441.4837.2161.7307.0618.2469.1442.463.1648.6688l.1442-.0206c.0617-.3293.1029-.6689.1852-1.0805.0824-.4013.1442-.782.1854-1.0805l1.2354-7.0799h3.7782l-3.0163 16.9589h-3.6755l-2.5018-7.3578c-.0618-.2675-.1648-.5866-.2677-.9982-.103-.4013-.2162-.7512-.2985-1.0188h-.1442c-.0206.3293-.0824.6998-.1647 1.1629-.0824.4322-.1442.8335-.2162 1.1834l-1.2046 7.0285zm14.9284 0 3.0168-16.9589h11.0777v.0618c-.35 1.8831-1.9869 3.2518-3.9426 3.2518h-3.6961l-.6078 3.3958h6.0747c-.3301 1.8833-1.9876 3.2931-3.9433 3.2931h-2.6874l-.6587 3.6634h7.186v.0823c-.3294 1.8832-1.9869 3.2518-3.9433 3.2518h-7.876z"/><path d="m18.8744 10.4994c-.3809 2.1507-2.2547 3.7458-4.4682 3.7458h-11.10891l.67951-3.7458zm-17.23469 13.2131-.679505 3.7457h5.744915c2.20322 0 4.10788-1.5847 4.46828-3.7457zm1.17369-6.6169-.6795 3.7458h8.4115c2.2032 0 4.1079-1.5847 4.4682-3.7458z"/><path d="m103.194 10.5207-3.016 16.9382h4.015l3.017-16.9382z"/><path d="m92.5186 10.5202-7.6188 16.9486h4.1593l1.246-3.0975h4.5709l.1338 3.0975h4.1388l-1.3897-16.9486zm-.9265 10.6713 1.8013-4.3838c.0822-.2675.1856-.5351.3294-.8541.1339-.3293.2677-.6483.4122-.9982.1438-.3498.2472-.6689.3499-.9364h.1644v.6689c0 .2367 0 .5145.0212.7512 0 .247.0206.4836.0206.7306v.6483l.1027 4.3838z"/></g></svg>