<svg height='38' viewBox="0 0 99 38" fill="none" xmlns="http://www.w3.org/2000/svg">
<path d="M6.15615 18.9969V29.9985H3.01624V18.9969H1.44629V15.8565H3.01472C3.01472 13.688 3.7814 11.8373 5.31478 10.3015C6.84815 8.76716 8.69703 8 10.8645 8V11.142C9.56584 11.142 8.45621 11.6035 7.5371 12.525C6.61647 13.448 6.15615 14.5575 6.15615 15.855V18.9969ZM13.9449 8H17.0849V29.9985H13.9449V8ZM27.1447 29.9985C24.9788 29.9985 23.1284 29.2283 21.5966 27.697C20.0617 26.1612 19.295 24.309 19.295 22.142C19.295 19.9719 20.0617 18.1213 21.5966 16.587C23.1284 15.0527 24.9788 14.2855 27.1447 14.2855C29.3107 14.2855 31.1596 15.0527 32.6945 16.587C34.2278 18.1213 34.9945 19.9719 34.9945 22.142C34.9945 24.309 34.2278 26.1627 32.6945 27.697C31.1596 29.2298 29.3092 29.9985 27.1447 29.9985ZM27.1447 17.4275C25.8461 17.4275 24.738 17.889 23.8158 18.8105C22.8952 19.7335 22.4349 20.8415 22.4349 22.142C22.4349 23.4394 22.8967 24.5504 23.8158 25.4735C24.7365 26.395 25.8461 26.8565 27.1447 26.8565C28.4403 26.8565 29.5515 26.395 30.4721 25.4735C31.3928 24.5504 31.8531 23.4394 31.8531 22.142C31.8531 20.8415 31.3943 19.7351 30.4721 18.8105C29.55 17.889 28.4403 17.4275 27.1447 17.4275ZM47.9078 14.2855H51.0461V15.1031C51.9774 14.5575 53.0231 14.2855 54.1845 14.2855C55.9221 14.2855 57.4022 14.8983 58.6276 16.1239C58.7237 16.2187 58.8121 16.3134 58.8959 16.4066C58.9782 16.3134 59.0681 16.2187 59.1611 16.1239C60.3866 14.8983 61.8666 14.2855 63.6042 14.2855C65.3419 14.2855 66.8219 14.8983 68.0458 16.1239C69.2713 17.3495 69.8825 18.8319 69.8825 20.571V30H66.7426V20.571C66.7426 19.7014 66.4378 18.9618 65.825 18.3475C65.2138 17.7346 64.4731 17.4275 63.6042 17.4275C62.7354 17.4275 61.9962 17.7331 61.3819 18.3475C60.7707 18.9618 60.4659 19.7014 60.4659 20.571V30H57.3244V20.571C57.3244 19.7014 57.0196 18.9618 56.4068 18.3475C55.7956 17.7346 55.0549 17.4275 54.1861 17.4275C53.3172 17.4275 52.578 17.7331 51.9668 18.3475C51.354 18.9618 51.0477 19.7014 51.0477 20.571V30H47.9093V14.2855H47.9078ZM84.6492 28.4412C83.2988 29.4789 81.7303 29.9985 79.9394 29.9985C77.775 29.9985 75.9246 29.2283 74.3912 27.697C72.8578 26.1612 72.0911 24.309 72.0911 22.142C72.0911 19.9719 72.8578 18.1213 74.3912 16.587C75.9246 15.0527 77.775 14.2855 79.9394 14.2855C81.7303 14.2855 83.2988 14.8036 84.6492 15.8412V14.2855H87.7891V29.9985H84.6492V28.4412ZM79.9409 17.4275C78.6438 17.4275 77.5357 17.889 76.6135 18.8105C75.6929 19.7335 75.2326 20.8415 75.2326 22.142C75.2326 23.4394 75.6929 24.5504 76.6135 25.4735C77.5342 26.395 78.6423 26.8565 79.9409 26.8565C81.238 26.8565 82.3477 26.395 83.2683 25.4735C84.1889 24.5504 84.6492 23.4394 84.6492 22.142C84.6492 20.8415 84.1889 19.7351 83.2683 18.8105C82.3477 17.889 81.2365 17.4275 79.9409 17.4275ZM44.6642 14.2993C44.902 14.284 45.0514 14.284 45.0514 14.284V17.426C43.7542 17.426 42.4937 17.7148 41.5731 18.6363C40.654 19.5578 40.3415 20.84 40.3415 22.1405V29.9969H37.2046V21.7981V20.0132C37.2565 19.7137 37.3403 19.4294 37.4379 19.1605C38.3981 16.0536 41.1463 14.9289 43.0653 14.5193C43.5759 14.3955 44.1109 14.3222 44.6642 14.2993ZM98.1127 14.2993C98.3505 14.284 98.4999 14.284 98.4999 14.284V17.426C97.2028 17.426 95.9422 17.7148 95.0216 18.6363C94.101 19.5578 93.7915 20.84 93.7915 22.1405V29.9969H90.6516V21.7981V20.0132C90.7035 19.7137 90.7843 19.4294 90.8849 19.1605C91.8451 16.0536 94.5918 14.9289 96.5123 14.5193C97.0229 14.3955 97.5579 14.3222 98.1127 14.2993ZM11.9711 17.6796C11.9711 18.8777 11.0001 19.8512 9.8021 19.8512C8.60406 19.8512 7.63312 18.8793 7.63312 17.6796C7.63312 16.48 8.60558 15.5081 9.8021 15.5081C11.0001 15.5065 11.9711 16.48 11.9711 17.6796Z" fill="black"/>
</svg>
