<svg fill="none" height="38" viewBox="0 0 111 38" width="111" xmlns="http://www.w3.org/2000/svg" xmlns:xlink="http://www.w3.org/1999/xlink"><clipPath id="a"><path d="m.443359 0h110v38h-110z"/></clipPath><clipPath id="b"><path d="m.815674 10h108.125v20h-108.125z"/></clipPath><mask id="c" height="21" maskUnits="userSpaceOnUse" width="109" x="0" y="9"><path d="m108.94 9.99988h-108.12457v19.93422h108.12457z" fill="#fff"/></mask><g clip-path="url(#a)"><g clip-path="url(#b)"><g fill="#000" mask="url(#c)"><path d="m107.539 25.9839v-.2953h.184c.093 0 .24.0185.24.1292 0 .1108-.073.1661-.203.1661zm0 .2031h.129l.295.5168h.314l-.332-.5352c.166.0184.295-.1108.313-.2769v-.0369c0-.2954-.203-.3692-.535-.3692h-.48v1.2367h.277v-.5353m1.422-.0923c0-.7383-.572-1.1628-1.2-1.1628s-1.2.4245-1.2 1.1628.572 1.1629 1.2 1.1629 1.2-.4246 1.2-1.1629zm-.351 0c.018.4614-.351.8676-.813.886h-.036c-.48.0184-.905-.3692-.923-.8491-.019-.4798.369-.9044.849-.9228.48-.0185.904.3691.923.849z"/><path d="m64.9546 13.7642v13.0866h3.6913v-13.0866zm-29.0711-.0184v13.105h3.7285v-10.1702l2.8979.0184c.9598 0 1.6243.2399 2.0672.7199.5907.6275.8121 1.6242.8121 3.47v5.9803h3.6178v-7.2539c0-5.1681-3.2855-5.8695-6.5156-5.8695zm35.033.0184v13.0866h5.9987c3.1932 0 4.245-.5354 5.3525-1.7166.7938-.8306 1.3107-2.6764 1.3107-4.6883 0-1.8458-.425-3.4885-1.2-4.5036-1.3475-1.8274-3.3225-2.1781-6.2757-2.1781-.0181 0-5.1862 0-5.1862 0zm3.6544 2.8426h1.5875c2.3068 0 3.8018 1.0336 3.8018 3.7099 0 2.6764-1.495 3.7285-3.8018 3.7285h-1.5875zm-14.9323-2.8426-3.0824 10.3732-2.9533-10.3732h-3.9869l4.2084 13.0866h5.3158l4.2638-13.0866zm25.656 13.105h3.6919v-13.105h-3.6919zm10.3731-13.105-5.1493 13.0866h3.6362l.8119-2.3257h6.1095l.775 2.3072h3.969l-5.205-13.0681zm2.3813 2.3995 2.252 6.1096h-4.5408c-.0187 0 2.2888-6.1096 2.2888-6.1096z"/><path d="m12.0562 15.9432v-1.7903c.1845-.0185.3507-.0185.5352-.0185 4.9282-.1477 8.1583 4.2452 8.1583 4.2452s-3.4885 4.8175-7.2354 4.8175c-.4984 0-.9782-.0738-1.4581-.24v-5.445c1.9195.24 2.3072 1.0706 3.4515 2.9902l2.5657-2.1595s-1.8827-2.4549-5.0205-2.4549c-.3323 0-.6645.0184-.9967.0553zm0-5.94332v2.67632l.5352-.0369c6.8478-.2399 11.3146 5.6111 11.3146 5.6111s-5.1313 6.2572-10.4655 6.2572c-.4614 0-.9229-.0369-1.3843-.1292v1.6612c.3691.0369.7567.0738 1.1443.0738 4.9651 0 8.5644-2.5471 12.0529-5.5373.5722.4615 2.9347 1.5874 3.4331 2.0673-3.3039 2.7686-11.0192 5.002-15.3937 5.002-.4245 0-.8121-.0185-1.2182-.0738v2.3625h18.8822v-19.93422zm0 12.97572v1.4213c-4.59602-.8306-5.86959-5.6111-5.86959-5.6111s2.21495-2.4365 5.86959-2.8426v1.5505h-.0185c-1.9196-.2399-3.43314 1.5689-3.43314 1.5689s.8675 3.027 3.45164 3.913zm-8.15834-4.3929s2.71328-4.0238 8.15834-4.4298v-1.4582c-6.03571.4799-11.24077 5.5742-11.24077 5.5742s2.95323 8.5459 11.24077 9.3212v-1.5505c-6.09108-.7568-8.15834-7.4569-8.15834-7.4569z"/></g></g></g></svg>