<svg width="76" height="38" viewBox="0 0 49 24" fill="none" xmlns="http://www.w3.org/2000/svg">
<g clip-path="url(#clip0_3763_941)">
<g style="mix-blend-mode:luminosity">
<path d="M47.3951 14.1598C47.2073 13.1822 46.9493 12.6289 46.6548 11.9693C46.467 11.5486 46.2934 11.1512 46.2356 10.8903C46.0925 10.2446 46.1626 9.43554 46.1958 9.14221H44.4631L44.1712 9.6067C43.5058 10.6658 42.0511 12.9829 42.0511 12.9829C41.2453 14.1938 40.2426 15.7003 38.7978 16.2701C38.5249 16.3623 37.9477 16.5494 37.4907 16.0255C37.0552 15.5264 37.0931 14.9874 37.0948 14.9647L37.0966 14.9406L37.0977 14.926L37.1085 14.9158L37.1263 14.8988C39.0356 13.0866 40.8576 11.0978 41.768 9.83194C42.8167 8.3741 43.3426 7.17426 43.7531 6.16407C44.0088 5.53449 44.5404 3.95464 43.9557 2.88506C43.7113 2.4378 43.2973 2.13421 42.7899 2.03021C42.6906 2.00988 42.5953 2 42.4989 2C41.4228 2 40.1477 3.35176 38.6007 6.13255C37.3132 8.44656 36.3979 10.434 35.8805 12.0398C35.6128 12.8706 35.4368 13.9233 35.4368 13.9233C35.3788 14.0276 34.3264 15.2412 33.2872 15.9294C32.9394 16.1598 32.4269 16.4446 31.6932 16.4446C31.0286 16.4446 30.4121 16.0381 30.4119 16.038C30.4122 16.0379 31.4798 15.4621 33.2005 13.7726C34.1303 12.8595 34.5234 11.6119 34.2262 10.5165C33.7598 8.79954 32.1188 8.6661 31.6269 8.6661C30.2558 8.67031 29.1411 9.55955 28.6032 10.3197C27.3062 12.1515 27.3629 13.6516 27.5573 14.7537C27.6203 15.1099 27.7351 15.4608 27.8985 15.7964L27.9147 15.8297C27.9145 15.8298 25.8712 17.2608 24.6444 15.6054C24.1736 14.9701 23.4476 13.651 23.4475 13.6507L27.7243 9.14271H25.4258C23.9638 10.6574 22.5976 12.0884 22.5973 12.0887C22.5972 12.0884 21.5902 10.1591 21.1126 9.14221H19.2557C19.4183 9.46305 19.5821 9.7943 19.761 10.1558C20.3506 11.3476 21.3891 13.3551 21.3892 13.3553C21.3891 13.3555 20.946 13.8182 20.9459 13.8184C20.7113 14.0621 19.9974 14.8038 18.849 15.5086C18.2075 15.9017 17.5341 16.1706 16.7903 16.3306C16.2084 16.4558 15.4591 16.4697 15.0079 16.3487C14.7499 16.2794 14.264 16.0423 14.264 16.0423C14.2642 16.0421 15.6077 15.2009 17.0586 13.7736C17.9876 12.8597 18.3807 11.612 18.0845 10.5174C17.6179 8.80075 15.9769 8.66736 15.485 8.66736C14.1143 8.67153 12.9992 9.56036 12.4608 10.3202C11.164 12.151 11.2208 13.6519 11.4152 14.7549C11.4724 15.0791 11.6918 15.6891 11.6918 15.6891C10.6982 16.213 9.75643 16.5257 8.60679 16.5669C8.50707 16.5706 8.08166 16.5721 7.94502 16.5649C7.91129 16.5631 7.80605 16.549 7.80605 16.549C7.80605 16.549 8.04621 16.3952 8.10236 16.3568C9.52014 15.3893 10.1459 13.6501 10.1889 12.1158C10.2246 10.85 9.92553 9.82733 9.34696 9.23669C8.98374 8.86548 8.50319 8.67347 7.91856 8.6661H7.89383C6.86359 8.6661 5.69013 9.28385 4.87282 10.0514C4.68136 10.2312 4.13934 10.841 4.13934 10.841L4.47564 9.14195H2.69626L-0.0477295 23H1.73266L3.33795 14.8898C3.68537 13.3642 4.21804 12.3973 5.23908 11.4354L5.25589 11.421C5.50868 11.2066 5.79784 11.0028 6.07006 10.8473C6.51995 10.5901 6.92697 10.4597 7.27982 10.4597C7.48911 10.4597 7.67796 10.5063 7.84125 10.5983C8.41905 10.9253 8.48939 11.7196 8.52721 12.1464C8.67536 13.8281 7.37705 14.9679 7.22852 15.0924C6.8015 15.4496 6.35602 15.6233 5.86658 15.6233C5.21129 15.6233 4.72014 15.3909 4.44459 15.262C4.43409 15.313 4.36505 15.6517 4.36505 15.6517C4.29678 15.9924 4.16476 16.6767 4.16476 16.6767C4.87845 17.2876 6.30152 17.9728 8.17883 18.0807C8.33107 18.0896 8.48542 18.094 8.63754 18.094C10.0171 18.094 11.3689 17.7332 12.6553 17.0215L12.6796 17.0082L12.7005 17.0262C13.189 17.4468 13.6594 17.652 13.814 17.7194C14.7128 18.1113 15.6911 18.0871 15.7871 18.0871C16.9745 18.0871 18.0835 17.7448 18.3951 17.6399C20.3698 16.9751 21.49 15.7319 21.9117 15.2696L22.2333 14.9305L22.4375 15.3071C22.7073 15.8066 23.0131 16.3729 23.5522 16.9892C23.7761 17.2452 24.6218 18.0801 26.1074 18.0801C27.5178 18.0801 28.9686 17.1268 28.9686 17.1268C28.9688 17.127 29.4447 17.5013 29.9583 17.7434C30.6018 18.0466 31.3517 18.0794 31.6442 18.0794C33.1062 18.0794 34.3132 17.5353 35.558 16.3151L35.6007 16.2733C35.6008 16.2735 35.7817 16.7036 35.9375 16.9279C36.7384 18.0795 37.7698 18.0833 38.1315 18.0833C38.4658 18.0833 39.0272 18.0253 39.4497 17.8621C41.3373 17.1322 42.8031 15.1016 43.5089 13.9561C43.509 13.9559 44.047 13.1031 44.6829 11.795L44.8249 11.5088C44.8249 11.5088 45.1639 12.3131 45.164 12.3134C45.3591 12.7868 45.541 13.3142 45.6276 13.6568C45.8666 14.5827 46.0267 15.3965 45.5615 15.9762C45.3347 16.2561 44.8672 16.5572 44.3768 16.5572C44.12 16.5572 43.8779 16.4769 43.6572 16.3185C43.5736 16.257 43.4869 16.1794 43.3985 16.0875C43.038 16.5374 42.664 16.9481 42.2861 17.3094C42.6108 17.5445 43.3694 18.098 44.5051 18.098C44.8508 18.098 45.3429 18.0089 45.6644 17.8492C46.9726 17.1992 47.7191 15.8474 47.3951 14.1598ZM37.8785 11.5955L38.0069 11.2755C38.4878 10.0769 39.1836 8.66376 40.134 6.95545C41.2329 4.97982 41.9637 4.19167 42.3014 3.89771L42.4036 3.80889L42.4649 3.75552L42.4688 3.83595L42.4752 3.96979C42.4937 4.36779 42.3648 4.95036 42.1304 5.52818C41.7398 6.489 41.28 7.53627 40.341 8.8417C39.8713 9.49432 39.1041 10.3967 38.1808 11.3825L37.9439 11.6357L37.8012 11.7883L37.8785 11.5955ZM13.4381 14.7035L13.3967 14.7336C13.3967 14.7336 13.3373 14.6128 13.3038 14.517C13.1685 14.1295 13.1237 13.4955 13.1911 12.9818C13.3101 12.0934 13.7052 11.4947 13.8696 11.2786C14.3604 10.6334 14.9229 10.2786 15.4472 10.2171C15.6295 10.1958 15.943 10.2216 16.2154 10.4829C16.4717 10.7288 16.924 11.5974 15.9487 12.647C15.6514 12.9668 15.387 13.2228 14.7667 13.735C14.3025 14.1201 13.5785 14.6094 13.4381 14.7035ZM29.5272 14.7199L29.482 14.75L29.4673 14.6982L29.4163 14.5172C29.2739 14.0123 29.2361 13.4954 29.3041 12.9812C29.4214 12.096 29.8176 11.4953 29.9824 11.2781C30.4728 10.6329 31.0331 10.2561 31.56 10.2173C31.5942 10.2147 31.6301 10.213 31.6673 10.213C31.9237 10.213 32.1399 10.301 32.3282 10.4821C32.5844 10.7288 33.0358 11.5987 32.0604 12.6469C31.7627 12.967 31.4983 13.2231 30.8797 13.7353C30.3699 14.1574 29.5355 14.7143 29.5272 14.7199Z" fill="#000"/>
</g>
</g>
</svg>
