<svg fill="none" height="38" viewBox="0 0 119 38" width="119" xmlns="http://www.w3.org/2000/svg" xmlns:xlink="http://www.w3.org/1999/xlink"><clipPath id="a"><path d="m.905029 0h117.167v38h-117.167z"/></clipPath><clipPath id="b"><path d="m.574463 3.91833h106.104v29.1786h-106.104z"/></clipPath><mask id="c" height="31" maskUnits="userSpaceOnUse" width="107" x="0" y="3"><path d="m106.678 3.91754h-106.104514v29.17866h106.104514z" fill="#fff"/></mask><g clip-path="url(#a)"><g clip-path="url(#b)"><g fill="#000" mask="url(#c)"><path d="m13.9988 18.2089v9.7805h2.6311v-12.769c-.4833.2717-1.7183 1.0867-2.6311 2.9885z"/><path d="m25.0587 17.6649c-2.7922 0-4.3494 1.4127-4.3494 3.9665v6.3574h-2.5775v-6.3574c0-4.0752 2.6312-6.629 6.9269-6.629z"/><path d="m32.2543 28.2599c-3.7588 0-5.7455-2.0104-5.7455-5.3249v-10.65h2.6311v2.9885h3.1681v2.6625h-3.1681v4.9447c0 1.7931.9665 2.8254 3.1681 2.8254v2.5538z"/><path d="m64.3649 10.1663h-2.5774v17.8223h2.5774z"/><path d="m39.6654 28.2614c-3.3829 0-5.9066-2.8255-5.9066-6.6291v-6.3573h2.6311v6.3573c0 2.3365 1.3424 3.9666 3.2218 3.9666s3.2218-1.7388 3.2218-3.9666v-6.3573h2.5774v6.3573c.0537 3.8036-2.4163 6.6291-5.7455 6.6291z"/><path d="m57.0105 26.1414c-1.0203 1.3041-2.4701 2.0648-4.1346 2.0648-3.383 0-5.9604-2.8799-5.9604-6.6291 0-3.8579 2.6849-6.629 6.3362-6.629 3.8125 0 6.3362 2.8254 6.3362 6.629v6.3574h-2.6311v-1.7931zm-7.4101-4.51c0 2.1735 1.5572 3.9666 3.705 3.9666 2.1479 0 3.7587-1.6844 3.7587-3.9666 0-2.0648-1.2887-3.9665-3.7587-3.9665-2.3626 0-3.705 1.9017-3.705 3.9665z"/><path d="m66.4595 33.0965v-11.4651c0-3.7492 2.5236-6.629 6.336-6.629 3.7051 0 6.3365 2.7712 6.3365 6.629 0 3.8579-2.4703 6.6291-5.9067 6.6291-1.772 0-3.1679-.7607-4.1885-2.0104v6.8464zm2.5773-11.4651c0 2.2822 1.6108 3.9666 3.7587 3.9666 2.2017 0 3.7588-1.7931 3.7588-3.9666 0-2.0648-1.3959-3.9665-3.7588-3.9665-2.4165 0-3.7587 1.8474-3.7587 3.9665z"/><path d="m90.6224 26.1414c-1.02 1.3041-2.4703 2.0648-4.1348 2.0648-3.3827 0-5.9604-2.8799-5.9604-6.6291 0-3.8579 2.6851-6.629 6.3364-6.629 3.8125 0 6.3364 2.8254 6.3364 6.629v6.3574h-2.6314v-1.7931zm-7.4638-4.51c0 2.1735 1.5571 3.9666 3.705 3.9666 2.148 0 3.7588-1.6844 3.7588-3.9666 0-2.0648-1.2885-3.9665-3.7588-3.9665-2.3628 0-3.705 1.8474-3.705 3.9665z"/><path d="m106.625 15.2746h-2.738-.054l-3.9201 9.2915-3.9199-9.2915h-2.7918l5.3695 12.5517-2.2017 5.2707h2.7926l7.5174-17.8224z"/><path d="m6.80251 23.4249-3.43656-8.1504h-2.79222l5.36965 12.7147h.59065c0-.3803-.05369-.7607-.05369-1.0867.05369-1.1954.10739-2.3365.32217-3.4776z"/><path d="m29.2473 3.91809c-11.3837 0-20.78052 8.47641-22.44513 19.50681-.16108 1.141-.26848 2.2821-.26848 3.4775 0 .3803 0 .7607.0537 1.0867h3.22181c.4832-12.0627 9.5579-21.84321 22.3377-21.68021 4.9401.05434 9.5579 1.63009 13.263 4.40121-4.1346-4.18386-9.8801-6.79201-16.1626-6.79201z"/></g></g></g></svg>