<svg fill="none" height="44" viewBox="0 0 44 44" width="44" xmlns="http://www.w3.org/2000/svg"><path d="m41.9001 29.8376v-15.6752c0-2.2598-1.2053-4.34784-3.1627-5.47776l-13.5747-7.837193c-1.9573-1.129929-4.3681-1.129929-6.3246 0l-13.57553 7.837193c-1.95658 1.12992-3.16272 3.21796-3.16272 5.47776v15.6752c0 2.2598 1.20537 4.3478 3.16272 5.4778l13.57473 7.8371c1.9573 1.13 4.3681 1.13 6.3246 0l13.5747-7.8371c1.9582-1.13 3.1635-3.218 3.1635-5.4778z" fill="#2563eb"/><g fill="#fff"><path d="m17.1817 14.9819h2.9318v9.7821c0 .9044-.2022 1.6899-.6066 2.3563-.4044.6672-.9651 1.1805-1.682 1.5413-.717.3609-1.5507.5413-2.5002.5413-.8453 0-1.6113-.1493-2.298-.4487-.6874-.2994-1.2318-.7559-1.6338-1.3703-.4021-.6143-.6004-1.3873-.5957-2.3189h2.952c.0093.3701.0855.6859.2294.9487.1438.2629.3421.4635.5957.6027.2535.1392.5537.2092.9005.2092.3655 0 .675-.0786.9285-.2364.2535-.1579.4464-.3896.5786-.6952.1322-.3057.1983-.6828.1983-1.1307v-9.7814z"/><path d="m30.1693 19.0164c-.0544-.5521-.29-.9822-.7053-1.2878-.4152-.3056-.9798-.4588-1.6922-.4588-.4844 0-.8927.0676-1.2263.2022-.3336.1345-.5879.3211-.7637.5583-.1757.2372-.2636.5071-.2636.808-.0093.2512.0443.4705.161.6579.1166.1874.2776.3484.4829.4829.2053.1346.4433.2512.7123.3492.2691.098.5568.1812.8632.2504l1.2606.3017c.612.1369 1.1735.3196 1.6852.5483.5117.2286.9542.5093 1.329.8422.374.3336.6657.7263.8733 1.1781s.3142.9705.3188 1.5553c-.0046.8585-.2224 1.602-.654 2.2295-.4316.6284-1.0529 1.1144-1.8632 1.4589s-1.7871.5172-2.9287.5172c-1.1322 0-2.1175-.1735-2.9558-.5211-.8383-.3468-1.4908-.8616-1.9589-1.5444-.4682-.6828-.7139-1.5289-.7365-2.5382h2.8703c.0319.4704.168.8616.4075 1.175.2395.3126.5615.5482.9659.7053.4044.1579.8616.2364 1.3733.2364.5024 0 .9394-.0731 1.3119-.2193s.661-.3491.8663-.6097c.2053-.2605.308-.5591.308-.8974 0-.3149-.0926-.5801-.2777-.7947-.185-.2147-.4541-.3974-.8079-.5483-.3539-.1508-.787-.2877-1.2979-.4113l-1.5274-.3834c-1.1828-.2878-2.1167-.7372-2.8018-1.3493-.6851-.612-1.025-1.4363-1.0211-2.4729-.0047-.8492.2224-1.5919.682-2.2264.4588-.6346 1.0903-1.1299 1.8944-1.4869.8041-.3562 1.717-.5342 2.7404-.5342 1.0413 0 1.9512.178 2.7296.5342s1.385.8515 1.8189 1.4869c.4339.6345.6579 1.3702.6711 2.2054h-2.8439z"/></g></svg>