<svg fill="none" height="44" viewBox="0 0 44 44" width="44" xmlns="http://www.w3.org/2000/svg" xmlns:xlink="http://www.w3.org/1999/xlink"><clipPath id="a"><path d="m0 0h44v44h-44z"/></clipPath><g clip-path="url(#a)"><path d="m33.3997 3.5292c6.2252 3.84535 10.3735 10.7309 10.3735 18.5854 0 12.0561-9.7734 21.8295-21.8295 21.8295-2.6291 0-5.1496-.4648-7.4832-1.3174l-.2493-.0928.406-.1304.5218-.1711.2575-.086.2552-.0863.5034-.1734.4942-.1746.485-.1757.4757-.1769.2345-.0889.4619-.1786c.4879-.1912.96-.3844 1.4164-.5797l.3394-.1468.4159-.1847c.1829-.0824.363-.1651.5403-.2482l.264-.1249.3884-.1885.1907-.0947.1885-.095.3699-.191c3.1058-1.6292 5.216-3.399 6.3363-5.3394 2.3737-4.1113.3006-8.5049-5.6506-12.9841l-.4843-.3631-.2942-.2256-.2856-.2239-.2771-.2221-.2686-.2205-.1311-.1096-.129-.1092-.2516-.2171-.1833-.1617-.1785-.1608-.2307-.213-.2223-.2112-.214-.2097-.1039-.1042-.1018-.1038-.1975-.2063c-2.3525-2.5008-2.8779-4.6417-1.8098-6.4916.5435-.9415 1.486-1.86714 2.8255-2.76865l.1627-.10806.2561-.16482c.1159-.07313.2343-.14609.3554-.21888l.1837-.10906.2829-.1631.2917-.16251.2247-.12148.2297-.12114.3141-.16097c.2389-.12049.4852-.24044.7391-.35983l.2564-.11921.3497-.15836.1781-.07893.363-.15733.1848-.07841.3763-.15628.1915-.07787.3896-.15521.1982-.07733.4029-.1541.4118-.15336.2093-.07639.4251-.15221.434-.15143.4429-.15065.2248-.07502.4562-.14944.465-.14862.4739-.14779.4828-.14696.4916-.1461.627-.18141.6408-.18004.7873-.21421zm-11.456-3.244044c2.6547 0 5.1987.473865 7.552 1.341624l.2514.09448-.1594.04825-.7775.23967-.2546.08051-.5023.16196-.4932.16323-.484.16449-.4748.16578-.4657.16708-.2295.08402-.5635.21151-.5493.21358-.4291.17237-.2111.08669-.4155.17441c-4.2455 1.80925-7.0279 3.8379-8.3584 6.14248-2.3223 4.02231-.216 8.35841 5.7358 12.83641l.4842.3631.2941.2258.2855.2241.1395.1115.2726.2217.1989.1652.194.1644.2513.2178.1225.1083.2385.2154c.1302.1192.2565.2377.3789.3555l.1807.1762.2602.2623.2472.2599c2.3424 2.5182 2.8431 4.7019 1.73 6.6299-.7203 1.2475-2.0954 2.4756-4.1223 3.6678l-.1861.1082-.3015.1709-.3105.1703c-.1751.0944-.3542.1887-.5375.2827l-.2781.1407-.342.1685-.3509.1679-.3598.1673-.1833.0834-.3733.1664-.3823.1658-.3912.1652-.199.0824-.4047.1643-.2057.0819-.2079.0817-.4226.163-.4315.1624-.4404.1616-.4494.161-.4584.1603-.2325.0799-.4718.1592-.2392.0794-.4852.1581-.494.1574-.6302.1958-.6442.1945-.5253.1547-.7332.2109c-6.28703-3.8318-10.484842-10.7525-10.484842-18.6538 0-12.0561 9.773382-21.829444 21.829442-21.829444z" fill="#0080ff"/></g></svg>